<svg width="342" height="1113" viewBox="0 0 342 1113" fill="none" xmlns="http://www.w3.org/2000/svg">
<g id="Warehouse">
<g id="PATH">
<g id="PATH1">
<path id="P-U1-T32" d="M60.5 -0.5H79.5V48.5H60.5V-0.5Z" fill="#898989" stroke="black" data-neighbors="P-U2-T31"/>
<path id="P-U2-T31" d="M60.5 47.5H79.5V96.5H60.5V47.5Z" fill="#898989" stroke="black" data-neighbors="P-U1-T32,P-U3-T30"/>
<path id="P-U3-T30" d="M60.5 93.5H79.5V142.5H60.5V93.5Z" fill="#898989" stroke="black" data-neighbors="P-U2-T31,P-U4-T29"/>
<path id="P-U4-T29" d="M60.5 142.5H79.5V191.5H60.5V142.5Z" fill="#898989" stroke="black" data-neighbors="P-U3-T30,P-U5-T28"/>
<path id="P-U5-T28" d="M60.5 189.5H79.5V238.5H60.5V189.5Z" fill="#898989" stroke="black" data-neighbors="P-U4-T29,P-U6-T27"/>
<path id="P-U6-T27" d="M60.5 239.5H79.5V288.5H60.5V239.5Z" fill="#898989" stroke="black" data-neighbors="P-U5-T28,P-U7-T26"/>
<path id="P-U7-T26" d="M60.5 285.5H79.5V334.5H60.5V285.5Z" fill="#898989" stroke="black" data-neighbors="P-U6-T27,P-U8-T25"/>
<path id="P-U8-T25" d="M60.5 333.5H79.5V382.5H60.5V333.5Z" fill="#898989" stroke="black" data-neighbors="P-U7-T26,P-U9-T24"/>
<path id="P-U9-T24" d="M60.5 382.5H79.5V431.5H60.5V382.5Z" fill="#898989" stroke="black" data-neighbors="P-U8-T25,P-U10"/>
<path id="P-U10" d="M60.5 431.5H79.5V480.5H60.5V431.5Z" fill="#898989" stroke="black" data-neighbors="P-U9-T24,P-CN1,P-CN9"/>
</g>
<g id="PATH2">
<path id="P-U11-T23" d="M60.5 526.5H79.5V575.5H60.5V526.5Z" fill="#898989" stroke="black" data-neighbors="P-U12-T22,P-CN1"/>
<path id="P-U12-T22" d="M60.5 575.5H79.5V624.5H60.5V575.5Z" fill="#898989" stroke="black" data-neighbors="P-U11-T23,P-U13-T21"/>
<path id="P-U13-T21" d="M60.5 623.5H79.5V672.5H60.5V623.5Z" fill="#898989" stroke="black" data-neighbors="P-U12-T22,P-U14-T20"/>
<path id="P-U14-T20" d="M60.5 669.5H79.5V718.5H60.5V669.5Z" fill="#898989" stroke="black" data-neighbors="P-U13-T21,P-U15-T19"/>
<path id="P-U15-T19" d="M60.5 718.5H79.5V767.5H60.5V718.5Z" fill="#898989" stroke="black" data-neighbors="P-U14-T20,P-U16-T18"/>
<path id="P-U16-T18" d="M60.5 767.5H79.5V816.5H60.5V767.5Z" fill="#898989" stroke="black" data-neighbors="P-U15-T19,P-U17"/>
<path id="P-U17" d="M60.5 815.5H79.5V864.5H60.5V815.5Z" fill="#898989" stroke="black" data-neighbors="P-U16-T18,P-U18"/>
<path id="P-U18" d="M60.5 861.5H79.5V910.5H60.5V861.5Z" fill="#898989" stroke="black" data-neighbors="P-U17,P-CN2"/>
<path id="P-BAY1" d="M60.5 958.5H79.5V1007.5H60.5V958.5Z" fill="#898989" stroke="black" data-neighbors="P-CN2,P-CN3"/>
</g>
<g id="PATH3">
<path id="P-T1-S32" d="M206.5 -0.5H225.5V48.5H206.5V-0.5Z" fill="#898989"  data-neighbors="P-T2-S31"/>
<path id="P-T2-S31" d="M206.5 47.5H225.5V96.5H206.5V47.5Z" fill="#898989"  data-neighbors="P-T1-S32,P-T3-S30"/>
<path id="P-T3-S30" d="M206.5 93.5H225.5V142.5H206.5V93.5Z" fill="#898989"  data-neighbors="P-T2-S31,P-T4-S29"/>
<path id="P-T4-S29" d="M206.5 142.5H225.5V191.5H206.5V142.5Z" fill="#898989"  data-neighbors="P-T3-S30,P-T5-S28"/>
<path id="P-T5-S28" d="M206.5 189.5H225.5V238.5H206.5V189.5Z" fill="#898989"  data-neighbors="P-T4-S29,P-T6-S27"/>
<path id="P-T6-S27" d="M206.5 239.5H225.5V288.5H206.5V239.5Z" fill="#898989"  data-neighbors="P-T5-S28,P-T7-S26"/>
<path id="P-T7-S26" d="M206.5 285.5H225.5V334.5H206.5V285.5Z" fill="#898989"  data-neighbors="P-T6-S27,P-T8-S25"/>
<path id="P-T8-S25" d="M206.5 333.5H225.5V382.5H206.5V333.5Z" fill="#898989"  data-neighbors="P-T7-S26,P-T9-S24"/>
<path id="P-T9-S24" d="M206.5 382.5H225.5V431.5H206.5V382.5Z" fill="#898989"  data-neighbors="P-T8-S25,P-CN8"/>
</g>
<g id="PATH4">
<path id="P-T10-S23" d="M206.5 526.5H225.5V575.5H206.5V526.5Z" fill="#898989" stroke="black" data-neighbors="P-T11-S22,P-CN7"/>
<path id="P-T11-S22" d="M206.5 575.5H225.5V624.5H206.5V575.5Z" fill="#898989" stroke="black" data-neighbors="P-T10-S23,P-T12-S21"/>
<path id="P-T12-S21" d="M206.5 623.5H225.5V672.5H206.5V623.5Z" fill="#898989" stroke="black" data-neighbors="P-T11-S22,P-T13-S20"/>
<path id="P-T13-S20" d="M206.5 669.5H225.5V718.5H206.5V669.5Z" fill="#898989" stroke="black" data-neighbors="P-T12-S21,P-T14-S19"/>
<path id="P-T14-S19" d="M206.5 718.5H225.5V767.5H206.5V718.5Z" fill="#898989" stroke="black" data-neighbors="P-T13-S20,P-T15-S18"/>
<path id="P-T15-S18" d="M206.5 767.5H225.5V816.5H206.5V767.5Z" fill="#898989" stroke="black" data-neighbors="P-T14-S19,P-CN6"/>
</g>
<g id="CONNECTING_PATH">
<path id="P-CN1" d="M60.5 478.5H79.5V527.5H60.5V478.5Z" fill="#898989" stroke="black" data-neighbors="P-U10,P-U11-T23,P-CN9"/>
<path id="P-CN2" d="M60.5 909.5H79.5V958.5H60.5V909.5Z" fill="#898989" stroke="black" data-neighbors="P-U18,P-BAY1"/>
<path id="P-CN3" d="M79.5 958.5H225.5V977.5H79.5V958.5Z" fill="#898989" stroke="black" data-neighbors="P-BAY1,P-CN4"/>
<path id="P-CN4" d="M206.5 909.5H225.5V958.5H206.5V909.5Z" fill="#898989" stroke="black" data-neighbors="P-CN3,P-CN5"/>
<path id="P-CN5" d="M206.5 861.5H225.5V910.5H206.5V861.5Z" fill="#898989" stroke="black" data-neighbors="P-CN4,P-CN6"/>
<path id="P-CN6" d="M206.5 815.5H225.5V864.5H206.5V815.5Z" fill="#898989" stroke="black" data-neighbors="P-CN5,P-T15-S18"/>
<path id="P-CN7" d="M206.5 478.5H225.5V527.5H206.5V478.5Z" fill="#898989" stroke="black" data-neighbors="P-CN8,P-CN9,P-T10-S23"/>
<path id="P-CN8" d="M206.5 431.5H225.5V480.5H206.5V431.5Z" fill="#898989" stroke="black" data-neighbors="P-CN7,P-CN9,P-T9-S24"/>
<path id="P-CN9" d="M79.5 450.5H206.5V502.5H79.5V450.5Z" fill="#898989" stroke="black" data-neighbors="P-U10,P-CN1,P-CN7,P-CN8"/>
</g>
</g>
<g id="U">
<g id="U1-10">
<g id="U1" filter="url(#filter0_d_1_224)">
<path d="M-2 -1H48V49H-2V-1Z" fill="#FFE7FF"/>
<path d="M-1 0H47V48H-1V0Z" stroke="black" stroke-width="2"/>
</g>
<path id="U2" d="M-1 48H47V96H-1V48Z" fill="#FFE7FF" stroke="black" stroke-width="2"/>
<g id="U3" filter="url(#filter1_d_1_224)">
<path d="M-2 95H48V145H-2V95Z" fill="#FFE7FF"/>
<path d="M-1 96H47V144H-1V96Z" stroke="black" stroke-width="2"/>
</g>
<path id="U4" d="M-1 144H47V192H-1V144Z" fill="#FFE7FF" stroke="black" stroke-width="2"/>
<g id="U5" filter="url(#filter2_d_1_224)">
<path d="M-2 191H48V241H-2V191Z" fill="#FFE7FF"/>
<path d="M-1 192H47V240H-1V192Z" stroke="black" stroke-width="2"/>
</g>
<path id="U6" d="M-1 240H47V288H-1V240Z" fill="#FFE7FF" stroke="black" stroke-width="2"/>
<g id="U7" filter="url(#filter3_d_1_224)">
<path d="M-2 287H48V337H-2V287Z" fill="#FFE7FF"/>
<path d="M-1 288H47V336H-1V288Z" stroke="black" stroke-width="2"/>
</g>
<path id="U8" d="M-1 336H47V384H-1V336Z" fill="#FFE7FF" stroke="black" stroke-width="2"/>
<g id="U9" filter="url(#filter4_d_1_224)">
<path d="M-2 383H48V433H-2V383Z" fill="#FFE7FF"/>
<path d="M-1 384H47V432H-1V384Z" stroke="black" stroke-width="2"/>
</g>
<path id="U10" d="M-1 432H47V480H-1V432Z" fill="#FFE7FF" stroke="black" stroke-width="2"/>
</g>
<g id="U11-U18">
<g id="U11" filter="url(#filter5_d_1_224)">
<path d="M-2 527H48V577H-2V527Z" fill="#FFE7FF"/>
<path d="M-1 528H47V576H-1V528Z" stroke="black" stroke-width="2"/>
</g>
<path id="U12" d="M-1 576H47V624H-1V576Z" fill="#FFE7FF" stroke="black" stroke-width="2"/>
<g id="U13" filter="url(#filter6_d_1_224)">
<path d="M-2 623H48V673H-2V623Z" fill="#FFE7FF"/>
<path d="M-1 624H47V672H-1V624Z" stroke="black" stroke-width="2"/>
</g>
<path id="U14" d="M-1 672H47V720H-1V672Z" fill="#FFE7FF" stroke="black" stroke-width="2"/>
<g id="U15" filter="url(#filter7_d_1_224)">
<path d="M-2 719H48V769H-2V719Z" fill="#FFE7FF"/>
<path d="M-1 720H47V768H-1V720Z" stroke="black" stroke-width="2"/>
</g>
<path id="U16" d="M-1 768H47V816H-1V768Z" fill="#FFE7FF" stroke="black" stroke-width="2"/>
<g id="U17" filter="url(#filter8_d_1_224)">
<path d="M-2 815H48V865H-2V815Z" fill="#FFE7FF"/>
<path d="M-1 816H47V864H-1V816Z" stroke="black" stroke-width="2"/>
</g>
<path id="U18" d="M-1 864H47V912H-1V864Z" fill="#FFE7FF" stroke="black" stroke-width="2"/>
</g>
</g>
<g id="T">
<g id="T24-T32">
<g id="T32" filter="url(#filter9_d_1_224)">
<path d="M92 -1H142V49H92V-1Z" fill="#FFE7FF"/>
<path d="M93 0H141V48H93V0Z" stroke="black" stroke-width="2"/>
</g>
<path id="T31" d="M93 48H141V96H93V48Z" fill="#FFE7FF" stroke="black" stroke-width="2"/>
<g id="T30" filter="url(#filter10_d_1_224)">
<path d="M92 95H142V145H92V95Z" fill="#FFE7FF"/>
<path d="M93 96H141V144H93V96Z" stroke="black" stroke-width="2"/>
</g>
<path id="T29" d="M93 144H141V192H93V144Z" fill="#FFE7FF" stroke="black" stroke-width="2"/>
<g id="T28" filter="url(#filter11_d_1_224)">
<path d="M92 191H142V241H92V191Z" fill="#FFE7FF"/>
<path d="M93 192H141V240H93V192Z" stroke="black" stroke-width="2"/>
</g>
<path id="T27" d="M93 240H141V288H93V240Z" fill="#FFE7FF" stroke="black" stroke-width="2"/>
<g id="T26" filter="url(#filter12_d_1_224)">
<path d="M92 287H142V337H92V287Z" fill="#FFE7FF"/>
<path d="M93 288H141V336H93V288Z" stroke="black" stroke-width="2"/>
</g>
<path id="T25" d="M93 336H141V384H93V336Z" fill="#FFE7FF" stroke="black" stroke-width="2"/>
<path id="T24" d="M93 384H141V432H93V384Z" fill="#FFE7FF" stroke="black" stroke-width="2"/>
</g>
<g id="T18-T23">
<g id="T23" filter="url(#filter13_d_1_224)">
<path d="M92 527H142V577H92V527Z" fill="#FFE7FF"/>
<path d="M93 528H141V576H93V528Z" stroke="black" stroke-width="2"/>
</g>
<path id="T22" d="M93 576H141V624H93V576Z" fill="#FFE7FF" stroke="black" stroke-width="2"/>
<g id="T21" filter="url(#filter14_d_1_224)">
<path d="M92 623H142V673H92V623Z" fill="#FFE7FF"/>
<path d="M93 624H141V672H93V624Z" stroke="black" stroke-width="2"/>
</g>
<path id="T20" d="M93 672H141V720H93V672Z" fill="#FFE7FF" stroke="black" stroke-width="2"/>
<g id="T19" filter="url(#filter15_d_1_224)">
<path d="M92 719H142V769H92V719Z" fill="#FFE7FF"/>
<path d="M93 720H141V768H93V720Z" stroke="black" stroke-width="2"/>
</g>
<path id="T18" d="M93 768H141V816H93V768Z" fill="#FFE7FF" stroke="black" stroke-width="2"/>
</g>
<g id="T10-T15">
<g id="T10" filter="url(#filter16_d_1_224)">
<path d="M140 527H190V577H140V527Z" fill="#FFE7FF"/>
<path d="M141 528H189V576H141V528Z" stroke="black" stroke-width="2"/>
</g>
<path id="T11" d="M141 576H189V624H141V576Z" fill="#FFE7FF" stroke="black" stroke-width="2"/>
<g id="T12" filter="url(#filter17_d_1_224)">
<path d="M140 623H190V673H140V623Z" fill="#FFE7FF"/>
<path d="M141 624H189V672H141V624Z" stroke="black" stroke-width="2"/>
</g>
<path id="T13" d="M141 672H189V720H141V672Z" fill="#FFE7FF" stroke="black" stroke-width="2"/>
<g id="T14" filter="url(#filter18_d_1_224)">
<path d="M140 719H190V769H140V719Z" fill="#FFE7FF"/>
<path d="M141 720H189V768H141V720Z" stroke="black" stroke-width="2"/>
</g>
<path id="T15" d="M141 768H189V816H141V768Z" fill="#FFE7FF" stroke="black" stroke-width="2"/>
</g>
<g id="T1-T9">
<g id="T1" filter="url(#filter19_d_1_224)">
<path d="M140 -1H190V49H140V-1Z" fill="#FFE7FF"/>
<path d="M141 0H189V48H141V0Z" stroke="black" stroke-width="2"/>
</g>
<path id="T2" d="M141 48H189V96H141V48Z" fill="#FFE7FF" stroke="black" stroke-width="2"/>
<g id="T3" filter="url(#filter20_d_1_224)">
<path d="M140 95H190V145H140V95Z" fill="#FFE7FF"/>
<path d="M141 96H189V144H141V96Z" stroke="black" stroke-width="2"/>
</g>
<path id="T4" d="M141 144H189V192H141V144Z" fill="#FFE7FF" stroke="black" stroke-width="2"/>
<g id="T5" filter="url(#filter21_d_1_224)">
<path d="M140 191H190V241H140V191Z" fill="#FFE7FF"/>
<path d="M141 192H189V240H141V192Z" stroke="black" stroke-width="2"/>
</g>
<path id="T6" d="M141 240H189V288H141V240Z" fill="#FFE7FF" stroke="black" stroke-width="2"/>
<g id="T7" filter="url(#filter22_d_1_224)">
<path d="M140 287H190V337H140V287Z" fill="#FFE7FF"/>
<path d="M141 288H189V336H141V288Z" stroke="black" stroke-width="2"/>
</g>
<path id="T8" d="M141 336H189V384H141V336Z" fill="#FFE7FF" stroke="black" stroke-width="2"/>
<path id="T9" d="M141 384H189V432H141V384Z" fill="#FFE7FF" stroke="black" stroke-width="2"/>
</g>
</g>
<g id="S">
<g id="S24-S32">
<g id="S32" filter="url(#filter23_d_1_224)">
<path d="M240 -1H290V49H240V-1Z" fill="#FFE7FF"/>
<path d="M241 0H289V48H241V0Z" stroke="black" stroke-width="2"/>
</g>
<path id="S31" d="M241 48H289V96H241V48Z" fill="#FFE7FF" stroke="black" stroke-width="2"/>
<g id="S30" filter="url(#filter24_d_1_224)">
<path d="M240 95H290V145H240V95Z" fill="#FFE7FF"/>
<path d="M241 96H289V144H241V96Z" stroke="black" stroke-width="2"/>
</g>
<path id="S29" d="M241 144H289V192H241V144Z" fill="#FFE7FF" stroke="black" stroke-width="2"/>
<g id="S28" filter="url(#filter25_d_1_224)">
<path d="M240 191H290V241H240V191Z" fill="#FFE7FF"/>
<path d="M241 192H289V240H241V192Z" stroke="black" stroke-width="2"/>
</g>
<path id="S27" d="M241 240H289V288H241V240Z" fill="#FFE7FF" stroke="black" stroke-width="2"/>
<g id="S26" filter="url(#filter26_d_1_224)">
<path d="M240 287H290V337H240V287Z" fill="#FFE7FF"/>
<path d="M241 288H289V336H241V288Z" stroke="black" stroke-width="2"/>
</g>
<path id="S25" d="M241 336H289V384H241V336Z" fill="#FFE7FF" stroke="black" stroke-width="2"/>
<path id="S24" d="M241 384H289V432H241V384Z" fill="#FFE7FF" stroke="black" stroke-width="2"/>
</g>
<g id="S18-S23">
<g id="S23" filter="url(#filter27_d_1_224)">
<path d="M240 527H290V577H240V527Z" fill="#FFE7FF"/>
<path d="M241 528H289V576H241V528Z" stroke="black" stroke-width="2"/>
</g>
<path id="S22" d="M241 576H289V624H241V576Z" fill="#FFE7FF" stroke="black" stroke-width="2"/>
<g id="S21" filter="url(#filter28_d_1_224)">
<path d="M240 623H290V673H240V623Z" fill="#FFE7FF"/>
<path d="M241 624H289V672H241V624Z" stroke="black" stroke-width="2"/>
</g>
<path id="S20" d="M241 672H289V720H241V672Z" fill="#FFE7FF" stroke="black" stroke-width="2"/>
<g id="S19" filter="url(#filter29_d_1_224)">
<path d="M240 719H290V769H240V719Z" fill="#FFE7FF"/>
<path d="M241 720H289V768H241V720Z" stroke="black" stroke-width="2"/>
</g>
<path id="S18" d="M241 768H289V816H241V768Z" fill="#FFE7FF" stroke="black" stroke-width="2"/>
</g>
<g id="S10-S15">
<g id="S10" filter="url(#filter30_d_1_224)">
<path d="M288 527H338V577H288V527Z" fill="#FFE7FF"/>
<path d="M289 528H337V576H289V528Z" stroke="black" stroke-width="2"/>
</g>
<path id="S11" d="M289 576H337V624H289V576Z" fill="#FFE7FF" stroke="black" stroke-width="2"/>
<g id="S12" filter="url(#filter31_d_1_224)">
<path d="M288 623H338V673H288V623Z" fill="#FFE7FF"/>
<path d="M289 624H337V672H289V624Z" stroke="black" stroke-width="2"/>
</g>
<path id="S13" d="M289 672H337V720H289V672Z" fill="#FFE7FF" stroke="black" stroke-width="2"/>
<g id="S14" filter="url(#filter32_d_1_224)">
<path d="M288 719H338V769H288V719Z" fill="#FFE7FF"/>
<path d="M289 720H337V768H289V720Z" stroke="black" stroke-width="2"/>
</g>
<path id="S15" d="M289 768H337V816H289V768Z" fill="#FFE7FF" stroke="black" stroke-width="2"/>
</g>
<g id="S1-S9">
<g id="S1" filter="url(#filter33_d_1_224)">
<path d="M288 -1H338V49H288V-1Z" fill="#FFE7FF"/>
<path d="M289 0H337V48H289V0Z" stroke="black" stroke-width="2"/>
</g>
<path id="S2" d="M289 48H337V96H289V48Z" fill="#FFE7FF" stroke="black" stroke-width="2"/>
<g id="S3" filter="url(#filter34_d_1_224)">
<path d="M288 95H338V145H288V95Z" fill="#FFE7FF"/>
<path d="M289 96H337V144H289V96Z" stroke="black" stroke-width="2"/>
</g>
<path id="S4" d="M289 144H337V192H289V144Z" fill="#FFE7FF" stroke="black" stroke-width="2"/>
<g id="S5" filter="url(#filter35_d_1_224)">
<path d="M288 191H338V241H288V191Z" fill="#FFE7FF"/>
<path d="M289 192H337V240H289V192Z" stroke="black" stroke-width="2"/>
</g>
<path id="S6" d="M289 240H337V288H289V240Z" fill="#FFE7FF" stroke="black" stroke-width="2"/>
<g id="S7" filter="url(#filter36_d_1_224)">
<path d="M288 287H338V337H288V287Z" fill="#FFE7FF"/>
<path d="M289 288H337V336H289V288Z" stroke="black" stroke-width="2"/>
</g>
<path id="S8" d="M289 336H337V384H289V336Z" fill="#FFE7FF" stroke="black" stroke-width="2"/>
<path id="S9" d="M289 384H337V432H289V384Z" fill="#FFE7FF" stroke="black" stroke-width="2"/>
</g>
</g>
<g id="BAY">
<rect id="BAY1" x="-1" y="1014" width="278" height="98" fill="#4BCCF5" stroke="black" stroke-width="2"/>
</g>
</g>
<defs>
<filter id="filter0_d_1_224" x="-6" y="-1" width="58" height="58" filterUnits="userSpaceOnUse" color-interpolation-filters="sRGB">
<feFlood flood-opacity="0" result="BackgroundImageFix"/>
<feColorMatrix in="SourceAlpha" type="matrix" values="0 0 0 0 0 0 0 0 0 0 0 0 0 0 0 0 0 0 127 0" result="hardAlpha"/>
<feOffset dy="4"/>
<feGaussianBlur stdDeviation="2"/>
<feComposite in2="hardAlpha" operator="out"/>
<feColorMatrix type="matrix" values="0 0 0 0 0 0 0 0 0 0 0 0 0 0 0 0 0 0 0.25 0"/>
<feBlend mode="normal" in2="BackgroundImageFix" result="effect1_dropShadow_1_224"/>
<feBlend mode="normal" in="SourceGraphic" in2="effect1_dropShadow_1_224" result="shape"/>
</filter>
<filter id="filter1_d_1_224" x="-6" y="95" width="58" height="58" filterUnits="userSpaceOnUse" color-interpolation-filters="sRGB">
<feFlood flood-opacity="0" result="BackgroundImageFix"/>
<feColorMatrix in="SourceAlpha" type="matrix" values="0 0 0 0 0 0 0 0 0 0 0 0 0 0 0 0 0 0 127 0" result="hardAlpha"/>
<feOffset dy="4"/>
<feGaussianBlur stdDeviation="2"/>
<feComposite in2="hardAlpha" operator="out"/>
<feColorMatrix type="matrix" values="0 0 0 0 0 0 0 0 0 0 0 0 0 0 0 0 0 0 0.25 0"/>
<feBlend mode="normal" in2="BackgroundImageFix" result="effect1_dropShadow_1_224"/>
<feBlend mode="normal" in="SourceGraphic" in2="effect1_dropShadow_1_224" result="shape"/>
</filter>
<filter id="filter2_d_1_224" x="-6" y="191" width="58" height="58" filterUnits="userSpaceOnUse" color-interpolation-filters="sRGB">
<feFlood flood-opacity="0" result="BackgroundImageFix"/>
<feColorMatrix in="SourceAlpha" type="matrix" values="0 0 0 0 0 0 0 0 0 0 0 0 0 0 0 0 0 0 127 0" result="hardAlpha"/>
<feOffset dy="4"/>
<feGaussianBlur stdDeviation="2"/>
<feComposite in2="hardAlpha" operator="out"/>
<feColorMatrix type="matrix" values="0 0 0 0 0 0 0 0 0 0 0 0 0 0 0 0 0 0 0.25 0"/>
<feBlend mode="normal" in2="BackgroundImageFix" result="effect1_dropShadow_1_224"/>
<feBlend mode="normal" in="SourceGraphic" in2="effect1_dropShadow_1_224" result="shape"/>
</filter>
<filter id="filter3_d_1_224" x="-6" y="287" width="58" height="58" filterUnits="userSpaceOnUse" color-interpolation-filters="sRGB">
<feFlood flood-opacity="0" result="BackgroundImageFix"/>
<feColorMatrix in="SourceAlpha" type="matrix" values="0 0 0 0 0 0 0 0 0 0 0 0 0 0 0 0 0 0 127 0" result="hardAlpha"/>
<feOffset dy="4"/>
<feGaussianBlur stdDeviation="2"/>
<feComposite in2="hardAlpha" operator="out"/>
<feColorMatrix type="matrix" values="0 0 0 0 0 0 0 0 0 0 0 0 0 0 0 0 0 0 0.25 0"/>
<feBlend mode="normal" in2="BackgroundImageFix" result="effect1_dropShadow_1_224"/>
<feBlend mode="normal" in="SourceGraphic" in2="effect1_dropShadow_1_224" result="shape"/>
</filter>
<filter id="filter4_d_1_224" x="-6" y="383" width="58" height="58" filterUnits="userSpaceOnUse" color-interpolation-filters="sRGB">
<feFlood flood-opacity="0" result="BackgroundImageFix"/>
<feColorMatrix in="SourceAlpha" type="matrix" values="0 0 0 0 0 0 0 0 0 0 0 0 0 0 0 0 0 0 127 0" result="hardAlpha"/>
<feOffset dy="4"/>
<feGaussianBlur stdDeviation="2"/>
<feComposite in2="hardAlpha" operator="out"/>
<feColorMatrix type="matrix" values="0 0 0 0 0 0 0 0 0 0 0 0 0 0 0 0 0 0 0.25 0"/>
<feBlend mode="normal" in2="BackgroundImageFix" result="effect1_dropShadow_1_224"/>
<feBlend mode="normal" in="SourceGraphic" in2="effect1_dropShadow_1_224" result="shape"/>
</filter>
<filter id="filter5_d_1_224" x="-6" y="527" width="58" height="58" filterUnits="userSpaceOnUse" color-interpolation-filters="sRGB">
<feFlood flood-opacity="0" result="BackgroundImageFix"/>
<feColorMatrix in="SourceAlpha" type="matrix" values="0 0 0 0 0 0 0 0 0 0 0 0 0 0 0 0 0 0 127 0" result="hardAlpha"/>
<feOffset dy="4"/>
<feGaussianBlur stdDeviation="2"/>
<feComposite in2="hardAlpha" operator="out"/>
<feColorMatrix type="matrix" values="0 0 0 0 0 0 0 0 0 0 0 0 0 0 0 0 0 0 0.25 0"/>
<feBlend mode="normal" in2="BackgroundImageFix" result="effect1_dropShadow_1_224"/>
<feBlend mode="normal" in="SourceGraphic" in2="effect1_dropShadow_1_224" result="shape"/>
</filter>
<filter id="filter6_d_1_224" x="-6" y="623" width="58" height="58" filterUnits="userSpaceOnUse" color-interpolation-filters="sRGB">
<feFlood flood-opacity="0" result="BackgroundImageFix"/>
<feColorMatrix in="SourceAlpha" type="matrix" values="0 0 0 0 0 0 0 0 0 0 0 0 0 0 0 0 0 0 127 0" result="hardAlpha"/>
<feOffset dy="4"/>
<feGaussianBlur stdDeviation="2"/>
<feComposite in2="hardAlpha" operator="out"/>
<feColorMatrix type="matrix" values="0 0 0 0 0 0 0 0 0 0 0 0 0 0 0 0 0 0 0.25 0"/>
<feBlend mode="normal" in2="BackgroundImageFix" result="effect1_dropShadow_1_224"/>
<feBlend mode="normal" in="SourceGraphic" in2="effect1_dropShadow_1_224" result="shape"/>
</filter>
<filter id="filter7_d_1_224" x="-6" y="719" width="58" height="58" filterUnits="userSpaceOnUse" color-interpolation-filters="sRGB">
<feFlood flood-opacity="0" result="BackgroundImageFix"/>
<feColorMatrix in="SourceAlpha" type="matrix" values="0 0 0 0 0 0 0 0 0 0 0 0 0 0 0 0 0 0 127 0" result="hardAlpha"/>
<feOffset dy="4"/>
<feGaussianBlur stdDeviation="2"/>
<feComposite in2="hardAlpha" operator="out"/>
<feColorMatrix type="matrix" values="0 0 0 0 0 0 0 0 0 0 0 0 0 0 0 0 0 0 0.25 0"/>
<feBlend mode="normal" in2="BackgroundImageFix" result="effect1_dropShadow_1_224"/>
<feBlend mode="normal" in="SourceGraphic" in2="effect1_dropShadow_1_224" result="shape"/>
</filter>
<filter id="filter8_d_1_224" x="-6" y="815" width="58" height="58" filterUnits="userSpaceOnUse" color-interpolation-filters="sRGB">
<feFlood flood-opacity="0" result="BackgroundImageFix"/>
<feColorMatrix in="SourceAlpha" type="matrix" values="0 0 0 0 0 0 0 0 0 0 0 0 0 0 0 0 0 0 127 0" result="hardAlpha"/>
<feOffset dy="4"/>
<feGaussianBlur stdDeviation="2"/>
<feComposite in2="hardAlpha" operator="out"/>
<feColorMatrix type="matrix" values="0 0 0 0 0 0 0 0 0 0 0 0 0 0 0 0 0 0 0.25 0"/>
<feBlend mode="normal" in2="BackgroundImageFix" result="effect1_dropShadow_1_224"/>
<feBlend mode="normal" in="SourceGraphic" in2="effect1_dropShadow_1_224" result="shape"/>
</filter>
<filter id="filter9_d_1_224" x="88" y="-1" width="58" height="58" filterUnits="userSpaceOnUse" color-interpolation-filters="sRGB">
<feFlood flood-opacity="0" result="BackgroundImageFix"/>
<feColorMatrix in="SourceAlpha" type="matrix" values="0 0 0 0 0 0 0 0 0 0 0 0 0 0 0 0 0 0 127 0" result="hardAlpha"/>
<feOffset dy="4"/>
<feGaussianBlur stdDeviation="2"/>
<feComposite in2="hardAlpha" operator="out"/>
<feColorMatrix type="matrix" values="0 0 0 0 0 0 0 0 0 0 0 0 0 0 0 0 0 0 0.25 0"/>
<feBlend mode="normal" in2="BackgroundImageFix" result="effect1_dropShadow_1_224"/>
<feBlend mode="normal" in="SourceGraphic" in2="effect1_dropShadow_1_224" result="shape"/>
</filter>
<filter id="filter10_d_1_224" x="88" y="95" width="58" height="58" filterUnits="userSpaceOnUse" color-interpolation-filters="sRGB">
<feFlood flood-opacity="0" result="BackgroundImageFix"/>
<feColorMatrix in="SourceAlpha" type="matrix" values="0 0 0 0 0 0 0 0 0 0 0 0 0 0 0 0 0 0 127 0" result="hardAlpha"/>
<feOffset dy="4"/>
<feGaussianBlur stdDeviation="2"/>
<feComposite in2="hardAlpha" operator="out"/>
<feColorMatrix type="matrix" values="0 0 0 0 0 0 0 0 0 0 0 0 0 0 0 0 0 0 0.25 0"/>
<feBlend mode="normal" in2="BackgroundImageFix" result="effect1_dropShadow_1_224"/>
<feBlend mode="normal" in="SourceGraphic" in2="effect1_dropShadow_1_224" result="shape"/>
</filter>
<filter id="filter11_d_1_224" x="88" y="191" width="58" height="58" filterUnits="userSpaceOnUse" color-interpolation-filters="sRGB">
<feFlood flood-opacity="0" result="BackgroundImageFix"/>
<feColorMatrix in="SourceAlpha" type="matrix" values="0 0 0 0 0 0 0 0 0 0 0 0 0 0 0 0 0 0 127 0" result="hardAlpha"/>
<feOffset dy="4"/>
<feGaussianBlur stdDeviation="2"/>
<feComposite in2="hardAlpha" operator="out"/>
<feColorMatrix type="matrix" values="0 0 0 0 0 0 0 0 0 0 0 0 0 0 0 0 0 0 0.25 0"/>
<feBlend mode="normal" in2="BackgroundImageFix" result="effect1_dropShadow_1_224"/>
<feBlend mode="normal" in="SourceGraphic" in2="effect1_dropShadow_1_224" result="shape"/>
</filter>
<filter id="filter12_d_1_224" x="88" y="287" width="58" height="58" filterUnits="userSpaceOnUse" color-interpolation-filters="sRGB">
<feFlood flood-opacity="0" result="BackgroundImageFix"/>
<feColorMatrix in="SourceAlpha" type="matrix" values="0 0 0 0 0 0 0 0 0 0 0 0 0 0 0 0 0 0 127 0" result="hardAlpha"/>
<feOffset dy="4"/>
<feGaussianBlur stdDeviation="2"/>
<feComposite in2="hardAlpha" operator="out"/>
<feColorMatrix type="matrix" values="0 0 0 0 0 0 0 0 0 0 0 0 0 0 0 0 0 0 0.25 0"/>
<feBlend mode="normal" in2="BackgroundImageFix" result="effect1_dropShadow_1_224"/>
<feBlend mode="normal" in="SourceGraphic" in2="effect1_dropShadow_1_224" result="shape"/>
</filter>
<filter id="filter13_d_1_224" x="88" y="527" width="58" height="58" filterUnits="userSpaceOnUse" color-interpolation-filters="sRGB">
<feFlood flood-opacity="0" result="BackgroundImageFix"/>
<feColorMatrix in="SourceAlpha" type="matrix" values="0 0 0 0 0 0 0 0 0 0 0 0 0 0 0 0 0 0 127 0" result="hardAlpha"/>
<feOffset dy="4"/>
<feGaussianBlur stdDeviation="2"/>
<feComposite in2="hardAlpha" operator="out"/>
<feColorMatrix type="matrix" values="0 0 0 0 0 0 0 0 0 0 0 0 0 0 0 0 0 0 0.25 0"/>
<feBlend mode="normal" in2="BackgroundImageFix" result="effect1_dropShadow_1_224"/>
<feBlend mode="normal" in="SourceGraphic" in2="effect1_dropShadow_1_224" result="shape"/>
</filter>
<filter id="filter14_d_1_224" x="88" y="623" width="58" height="58" filterUnits="userSpaceOnUse" color-interpolation-filters="sRGB">
<feFlood flood-opacity="0" result="BackgroundImageFix"/>
<feColorMatrix in="SourceAlpha" type="matrix" values="0 0 0 0 0 0 0 0 0 0 0 0 0 0 0 0 0 0 127 0" result="hardAlpha"/>
<feOffset dy="4"/>
<feGaussianBlur stdDeviation="2"/>
<feComposite in2="hardAlpha" operator="out"/>
<feColorMatrix type="matrix" values="0 0 0 0 0 0 0 0 0 0 0 0 0 0 0 0 0 0 0.25 0"/>
<feBlend mode="normal" in2="BackgroundImageFix" result="effect1_dropShadow_1_224"/>
<feBlend mode="normal" in="SourceGraphic" in2="effect1_dropShadow_1_224" result="shape"/>
</filter>
<filter id="filter15_d_1_224" x="88" y="719" width="58" height="58" filterUnits="userSpaceOnUse" color-interpolation-filters="sRGB">
<feFlood flood-opacity="0" result="BackgroundImageFix"/>
<feColorMatrix in="SourceAlpha" type="matrix" values="0 0 0 0 0 0 0 0 0 0 0 0 0 0 0 0 0 0 127 0" result="hardAlpha"/>
<feOffset dy="4"/>
<feGaussianBlur stdDeviation="2"/>
<feComposite in2="hardAlpha" operator="out"/>
<feColorMatrix type="matrix" values="0 0 0 0 0 0 0 0 0 0 0 0 0 0 0 0 0 0 0.25 0"/>
<feBlend mode="normal" in2="BackgroundImageFix" result="effect1_dropShadow_1_224"/>
<feBlend mode="normal" in="SourceGraphic" in2="effect1_dropShadow_1_224" result="shape"/>
</filter>
<filter id="filter16_d_1_224" x="136" y="527" width="58" height="58" filterUnits="userSpaceOnUse" color-interpolation-filters="sRGB">
<feFlood flood-opacity="0" result="BackgroundImageFix"/>
<feColorMatrix in="SourceAlpha" type="matrix" values="0 0 0 0 0 0 0 0 0 0 0 0 0 0 0 0 0 0 127 0" result="hardAlpha"/>
<feOffset dy="4"/>
<feGaussianBlur stdDeviation="2"/>
<feComposite in2="hardAlpha" operator="out"/>
<feColorMatrix type="matrix" values="0 0 0 0 0 0 0 0 0 0 0 0 0 0 0 0 0 0 0.25 0"/>
<feBlend mode="normal" in2="BackgroundImageFix" result="effect1_dropShadow_1_224"/>
<feBlend mode="normal" in="SourceGraphic" in2="effect1_dropShadow_1_224" result="shape"/>
</filter>
<filter id="filter17_d_1_224" x="136" y="623" width="58" height="58" filterUnits="userSpaceOnUse" color-interpolation-filters="sRGB">
<feFlood flood-opacity="0" result="BackgroundImageFix"/>
<feColorMatrix in="SourceAlpha" type="matrix" values="0 0 0 0 0 0 0 0 0 0 0 0 0 0 0 0 0 0 127 0" result="hardAlpha"/>
<feOffset dy="4"/>
<feGaussianBlur stdDeviation="2"/>
<feComposite in2="hardAlpha" operator="out"/>
<feColorMatrix type="matrix" values="0 0 0 0 0 0 0 0 0 0 0 0 0 0 0 0 0 0 0.25 0"/>
<feBlend mode="normal" in2="BackgroundImageFix" result="effect1_dropShadow_1_224"/>
<feBlend mode="normal" in="SourceGraphic" in2="effect1_dropShadow_1_224" result="shape"/>
</filter>
<filter id="filter18_d_1_224" x="136" y="719" width="58" height="58" filterUnits="userSpaceOnUse" color-interpolation-filters="sRGB">
<feFlood flood-opacity="0" result="BackgroundImageFix"/>
<feColorMatrix in="SourceAlpha" type="matrix" values="0 0 0 0 0 0 0 0 0 0 0 0 0 0 0 0 0 0 127 0" result="hardAlpha"/>
<feOffset dy="4"/>
<feGaussianBlur stdDeviation="2"/>
<feComposite in2="hardAlpha" operator="out"/>
<feColorMatrix type="matrix" values="0 0 0 0 0 0 0 0 0 0 0 0 0 0 0 0 0 0 0.25 0"/>
<feBlend mode="normal" in2="BackgroundImageFix" result="effect1_dropShadow_1_224"/>
<feBlend mode="normal" in="SourceGraphic" in2="effect1_dropShadow_1_224" result="shape"/>
</filter>
<filter id="filter19_d_1_224" x="136" y="-1" width="58" height="58" filterUnits="userSpaceOnUse" color-interpolation-filters="sRGB">
<feFlood flood-opacity="0" result="BackgroundImageFix"/>
<feColorMatrix in="SourceAlpha" type="matrix" values="0 0 0 0 0 0 0 0 0 0 0 0 0 0 0 0 0 0 127 0" result="hardAlpha"/>
<feOffset dy="4"/>
<feGaussianBlur stdDeviation="2"/>
<feComposite in2="hardAlpha" operator="out"/>
<feColorMatrix type="matrix" values="0 0 0 0 0 0 0 0 0 0 0 0 0 0 0 0 0 0 0.25 0"/>
<feBlend mode="normal" in2="BackgroundImageFix" result="effect1_dropShadow_1_224"/>
<feBlend mode="normal" in="SourceGraphic" in2="effect1_dropShadow_1_224" result="shape"/>
</filter>
<filter id="filter20_d_1_224" x="136" y="95" width="58" height="58" filterUnits="userSpaceOnUse" color-interpolation-filters="sRGB">
<feFlood flood-opacity="0" result="BackgroundImageFix"/>
<feColorMatrix in="SourceAlpha" type="matrix" values="0 0 0 0 0 0 0 0 0 0 0 0 0 0 0 0 0 0 127 0" result="hardAlpha"/>
<feOffset dy="4"/>
<feGaussianBlur stdDeviation="2"/>
<feComposite in2="hardAlpha" operator="out"/>
<feColorMatrix type="matrix" values="0 0 0 0 0 0 0 0 0 0 0 0 0 0 0 0 0 0 0.25 0"/>
<feBlend mode="normal" in2="BackgroundImageFix" result="effect1_dropShadow_1_224"/>
<feBlend mode="normal" in="SourceGraphic" in2="effect1_dropShadow_1_224" result="shape"/>
</filter>
<filter id="filter21_d_1_224" x="136" y="191" width="58" height="58" filterUnits="userSpaceOnUse" color-interpolation-filters="sRGB">
<feFlood flood-opacity="0" result="BackgroundImageFix"/>
<feColorMatrix in="SourceAlpha" type="matrix" values="0 0 0 0 0 0 0 0 0 0 0 0 0 0 0 0 0 0 127 0" result="hardAlpha"/>
<feOffset dy="4"/>
<feGaussianBlur stdDeviation="2"/>
<feComposite in2="hardAlpha" operator="out"/>
<feColorMatrix type="matrix" values="0 0 0 0 0 0 0 0 0 0 0 0 0 0 0 0 0 0 0.25 0"/>
<feBlend mode="normal" in2="BackgroundImageFix" result="effect1_dropShadow_1_224"/>
<feBlend mode="normal" in="SourceGraphic" in2="effect1_dropShadow_1_224" result="shape"/>
</filter>
<filter id="filter22_d_1_224" x="136" y="287" width="58" height="58" filterUnits="userSpaceOnUse" color-interpolation-filters="sRGB">
<feFlood flood-opacity="0" result="BackgroundImageFix"/>
<feColorMatrix in="SourceAlpha" type="matrix" values="0 0 0 0 0 0 0 0 0 0 0 0 0 0 0 0 0 0 127 0" result="hardAlpha"/>
<feOffset dy="4"/>
<feGaussianBlur stdDeviation="2"/>
<feComposite in2="hardAlpha" operator="out"/>
<feColorMatrix type="matrix" values="0 0 0 0 0 0 0 0 0 0 0 0 0 0 0 0 0 0 0.25 0"/>
<feBlend mode="normal" in2="BackgroundImageFix" result="effect1_dropShadow_1_224"/>
<feBlend mode="normal" in="SourceGraphic" in2="effect1_dropShadow_1_224" result="shape"/>
</filter>
<filter id="filter23_d_1_224" x="236" y="-1" width="58" height="58" filterUnits="userSpaceOnUse" color-interpolation-filters="sRGB">
<feFlood flood-opacity="0" result="BackgroundImageFix"/>
<feColorMatrix in="SourceAlpha" type="matrix" values="0 0 0 0 0 0 0 0 0 0 0 0 0 0 0 0 0 0 127 0" result="hardAlpha"/>
<feOffset dy="4"/>
<feGaussianBlur stdDeviation="2"/>
<feComposite in2="hardAlpha" operator="out"/>
<feColorMatrix type="matrix" values="0 0 0 0 0 0 0 0 0 0 0 0 0 0 0 0 0 0 0.25 0"/>
<feBlend mode="normal" in2="BackgroundImageFix" result="effect1_dropShadow_1_224"/>
<feBlend mode="normal" in="SourceGraphic" in2="effect1_dropShadow_1_224" result="shape"/>
</filter>
<filter id="filter24_d_1_224" x="236" y="95" width="58" height="58" filterUnits="userSpaceOnUse" color-interpolation-filters="sRGB">
<feFlood flood-opacity="0" result="BackgroundImageFix"/>
<feColorMatrix in="SourceAlpha" type="matrix" values="0 0 0 0 0 0 0 0 0 0 0 0 0 0 0 0 0 0 127 0" result="hardAlpha"/>
<feOffset dy="4"/>
<feGaussianBlur stdDeviation="2"/>
<feComposite in2="hardAlpha" operator="out"/>
<feColorMatrix type="matrix" values="0 0 0 0 0 0 0 0 0 0 0 0 0 0 0 0 0 0 0.25 0"/>
<feBlend mode="normal" in2="BackgroundImageFix" result="effect1_dropShadow_1_224"/>
<feBlend mode="normal" in="SourceGraphic" in2="effect1_dropShadow_1_224" result="shape"/>
</filter>
<filter id="filter25_d_1_224" x="236" y="191" width="58" height="58" filterUnits="userSpaceOnUse" color-interpolation-filters="sRGB">
<feFlood flood-opacity="0" result="BackgroundImageFix"/>
<feColorMatrix in="SourceAlpha" type="matrix" values="0 0 0 0 0 0 0 0 0 0 0 0 0 0 0 0 0 0 127 0" result="hardAlpha"/>
<feOffset dy="4"/>
<feGaussianBlur stdDeviation="2"/>
<feComposite in2="hardAlpha" operator="out"/>
<feColorMatrix type="matrix" values="0 0 0 0 0 0 0 0 0 0 0 0 0 0 0 0 0 0 0.25 0"/>
<feBlend mode="normal" in2="BackgroundImageFix" result="effect1_dropShadow_1_224"/>
<feBlend mode="normal" in="SourceGraphic" in2="effect1_dropShadow_1_224" result="shape"/>
</filter>
<filter id="filter26_d_1_224" x="236" y="287" width="58" height="58" filterUnits="userSpaceOnUse" color-interpolation-filters="sRGB">
<feFlood flood-opacity="0" result="BackgroundImageFix"/>
<feColorMatrix in="SourceAlpha" type="matrix" values="0 0 0 0 0 0 0 0 0 0 0 0 0 0 0 0 0 0 127 0" result="hardAlpha"/>
<feOffset dy="4"/>
<feGaussianBlur stdDeviation="2"/>
<feComposite in2="hardAlpha" operator="out"/>
<feColorMatrix type="matrix" values="0 0 0 0 0 0 0 0 0 0 0 0 0 0 0 0 0 0 0.25 0"/>
<feBlend mode="normal" in2="BackgroundImageFix" result="effect1_dropShadow_1_224"/>
<feBlend mode="normal" in="SourceGraphic" in2="effect1_dropShadow_1_224" result="shape"/>
</filter>
<filter id="filter27_d_1_224" x="236" y="527" width="58" height="58" filterUnits="userSpaceOnUse" color-interpolation-filters="sRGB">
<feFlood flood-opacity="0" result="BackgroundImageFix"/>
<feColorMatrix in="SourceAlpha" type="matrix" values="0 0 0 0 0 0 0 0 0 0 0 0 0 0 0 0 0 0 127 0" result="hardAlpha"/>
<feOffset dy="4"/>
<feGaussianBlur stdDeviation="2"/>
<feComposite in2="hardAlpha" operator="out"/>
<feColorMatrix type="matrix" values="0 0 0 0 0 0 0 0 0 0 0 0 0 0 0 0 0 0 0.25 0"/>
<feBlend mode="normal" in2="BackgroundImageFix" result="effect1_dropShadow_1_224"/>
<feBlend mode="normal" in="SourceGraphic" in2="effect1_dropShadow_1_224" result="shape"/>
</filter>
<filter id="filter28_d_1_224" x="236" y="623" width="58" height="58" filterUnits="userSpaceOnUse" color-interpolation-filters="sRGB">
<feFlood flood-opacity="0" result="BackgroundImageFix"/>
<feColorMatrix in="SourceAlpha" type="matrix" values="0 0 0 0 0 0 0 0 0 0 0 0 0 0 0 0 0 0 127 0" result="hardAlpha"/>
<feOffset dy="4"/>
<feGaussianBlur stdDeviation="2"/>
<feComposite in2="hardAlpha" operator="out"/>
<feColorMatrix type="matrix" values="0 0 0 0 0 0 0 0 0 0 0 0 0 0 0 0 0 0 0.25 0"/>
<feBlend mode="normal" in2="BackgroundImageFix" result="effect1_dropShadow_1_224"/>
<feBlend mode="normal" in="SourceGraphic" in2="effect1_dropShadow_1_224" result="shape"/>
</filter>
<filter id="filter29_d_1_224" x="236" y="719" width="58" height="58" filterUnits="userSpaceOnUse" color-interpolation-filters="sRGB">
<feFlood flood-opacity="0" result="BackgroundImageFix"/>
<feColorMatrix in="SourceAlpha" type="matrix" values="0 0 0 0 0 0 0 0 0 0 0 0 0 0 0 0 0 0 127 0" result="hardAlpha"/>
<feOffset dy="4"/>
<feGaussianBlur stdDeviation="2"/>
<feComposite in2="hardAlpha" operator="out"/>
<feColorMatrix type="matrix" values="0 0 0 0 0 0 0 0 0 0 0 0 0 0 0 0 0 0 0.25 0"/>
<feBlend mode="normal" in2="BackgroundImageFix" result="effect1_dropShadow_1_224"/>
<feBlend mode="normal" in="SourceGraphic" in2="effect1_dropShadow_1_224" result="shape"/>
</filter>
<filter id="filter30_d_1_224" x="284" y="527" width="58" height="58" filterUnits="userSpaceOnUse" color-interpolation-filters="sRGB">
<feFlood flood-opacity="0" result="BackgroundImageFix"/>
<feColorMatrix in="SourceAlpha" type="matrix" values="0 0 0 0 0 0 0 0 0 0 0 0 0 0 0 0 0 0 127 0" result="hardAlpha"/>
<feOffset dy="4"/>
<feGaussianBlur stdDeviation="2"/>
<feComposite in2="hardAlpha" operator="out"/>
<feColorMatrix type="matrix" values="0 0 0 0 0 0 0 0 0 0 0 0 0 0 0 0 0 0 0.25 0"/>
<feBlend mode="normal" in2="BackgroundImageFix" result="effect1_dropShadow_1_224"/>
<feBlend mode="normal" in="SourceGraphic" in2="effect1_dropShadow_1_224" result="shape"/>
</filter>
<filter id="filter31_d_1_224" x="284" y="623" width="58" height="58" filterUnits="userSpaceOnUse" color-interpolation-filters="sRGB">
<feFlood flood-opacity="0" result="BackgroundImageFix"/>
<feColorMatrix in="SourceAlpha" type="matrix" values="0 0 0 0 0 0 0 0 0 0 0 0 0 0 0 0 0 0 127 0" result="hardAlpha"/>
<feOffset dy="4"/>
<feGaussianBlur stdDeviation="2"/>
<feComposite in2="hardAlpha" operator="out"/>
<feColorMatrix type="matrix" values="0 0 0 0 0 0 0 0 0 0 0 0 0 0 0 0 0 0 0.25 0"/>
<feBlend mode="normal" in2="BackgroundImageFix" result="effect1_dropShadow_1_224"/>
<feBlend mode="normal" in="SourceGraphic" in2="effect1_dropShadow_1_224" result="shape"/>
</filter>
<filter id="filter32_d_1_224" x="284" y="719" width="58" height="58" filterUnits="userSpaceOnUse" color-interpolation-filters="sRGB">
<feFlood flood-opacity="0" result="BackgroundImageFix"/>
<feColorMatrix in="SourceAlpha" type="matrix" values="0 0 0 0 0 0 0 0 0 0 0 0 0 0 0 0 0 0 127 0" result="hardAlpha"/>
<feOffset dy="4"/>
<feGaussianBlur stdDeviation="2"/>
<feComposite in2="hardAlpha" operator="out"/>
<feColorMatrix type="matrix" values="0 0 0 0 0 0 0 0 0 0 0 0 0 0 0 0 0 0 0.25 0"/>
<feBlend mode="normal" in2="BackgroundImageFix" result="effect1_dropShadow_1_224"/>
<feBlend mode="normal" in="SourceGraphic" in2="effect1_dropShadow_1_224" result="shape"/>
</filter>
<filter id="filter33_d_1_224" x="284" y="-1" width="58" height="58" filterUnits="userSpaceOnUse" color-interpolation-filters="sRGB">
<feFlood flood-opacity="0" result="BackgroundImageFix"/>
<feColorMatrix in="SourceAlpha" type="matrix" values="0 0 0 0 0 0 0 0 0 0 0 0 0 0 0 0 0 0 127 0" result="hardAlpha"/>
<feOffset dy="4"/>
<feGaussianBlur stdDeviation="2"/>
<feComposite in2="hardAlpha" operator="out"/>
<feColorMatrix type="matrix" values="0 0 0 0 0 0 0 0 0 0 0 0 0 0 0 0 0 0 0.25 0"/>
<feBlend mode="normal" in2="BackgroundImageFix" result="effect1_dropShadow_1_224"/>
<feBlend mode="normal" in="SourceGraphic" in2="effect1_dropShadow_1_224" result="shape"/>
</filter>
<filter id="filter34_d_1_224" x="284" y="95" width="58" height="58" filterUnits="userSpaceOnUse" color-interpolation-filters="sRGB">
<feFlood flood-opacity="0" result="BackgroundImageFix"/>
<feColorMatrix in="SourceAlpha" type="matrix" values="0 0 0 0 0 0 0 0 0 0 0 0 0 0 0 0 0 0 127 0" result="hardAlpha"/>
<feOffset dy="4"/>
<feGaussianBlur stdDeviation="2"/>
<feComposite in2="hardAlpha" operator="out"/>
<feColorMatrix type="matrix" values="0 0 0 0 0 0 0 0 0 0 0 0 0 0 0 0 0 0 0.25 0"/>
<feBlend mode="normal" in2="BackgroundImageFix" result="effect1_dropShadow_1_224"/>
<feBlend mode="normal" in="SourceGraphic" in2="effect1_dropShadow_1_224" result="shape"/>
</filter>
<filter id="filter35_d_1_224" x="284" y="191" width="58" height="58" filterUnits="userSpaceOnUse" color-interpolation-filters="sRGB">
<feFlood flood-opacity="0" result="BackgroundImageFix"/>
<feColorMatrix in="SourceAlpha" type="matrix" values="0 0 0 0 0 0 0 0 0 0 0 0 0 0 0 0 0 0 127 0" result="hardAlpha"/>
<feOffset dy="4"/>
<feGaussianBlur stdDeviation="2"/>
<feComposite in2="hardAlpha" operator="out"/>
<feColorMatrix type="matrix" values="0 0 0 0 0 0 0 0 0 0 0 0 0 0 0 0 0 0 0.25 0"/>
<feBlend mode="normal" in2="BackgroundImageFix" result="effect1_dropShadow_1_224"/>
<feBlend mode="normal" in="SourceGraphic" in2="effect1_dropShadow_1_224" result="shape"/>
</filter>
<filter id="filter36_d_1_224" x="284" y="287" width="58" height="58" filterUnits="userSpaceOnUse" color-interpolation-filters="sRGB">
<feFlood flood-opacity="0" result="BackgroundImageFix"/>
<feColorMatrix in="SourceAlpha" type="matrix" values="0 0 0 0 0 0 0 0 0 0 0 0 0 0 0 0 0 0 127 0" result="hardAlpha"/>
<feOffset dy="4"/>
<feGaussianBlur stdDeviation="2"/>
<feComposite in2="hardAlpha" operator="out"/>
<feColorMatrix type="matrix" values="0 0 0 0 0 0 0 0 0 0 0 0 0 0 0 0 0 0 0.25 0"/>
<feBlend mode="normal" in2="BackgroundImageFix" result="effect1_dropShadow_1_224"/>
<feBlend mode="normal" in="SourceGraphic" in2="effect1_dropShadow_1_224" result="shape"/>
</filter>
</defs>
</svg>
